# xmcd CD database file
#
# Track frame offsets:
#	150
#	15340
#	29450
#	46945
#	61238
#	82390
#	91890
#	112385
#	144753
#	164850
#	192698
#	208798
#	242228
#	255930
#
# Disc length: 3656 seconds
#
# Revision: 0
# Processed by: cddbd v1.4PL0 Copyright (c) Steve Scherf et al.
# Submitted via: Feurio! 1.63 - http://www.feurio.com
#
DISCID=c90e460e
DTITLE=Mississippi Mudsharks - Traditional Heavy
DYEAR=1996
DGENRE=Bluesrock
TTITLE0=Can I Walk You Home
TTITLE1=Work
TTITLE2=She's So Good To Me
TTITLE3=Drinkin' Triple
TTITLE4=Heads Up
TTITLE5=Flip Your Wig
TTITLE6=I've Been There Too
TTITLE7=Boogie Chillun
TTITLE8=Too Many Women
TTITLE9=Zig Zag
TTITLE10=Blonde Bruce
TTITLE11=She's Gone
TTITLE12=I've Got My Reasons
TTITLE13=Burned Your Bridges
EXTD=
EXTT0=
EXTT1=
EXTT2=
EXTT3=
EXTT4=
EXTT5=
EXTT6=
EXTT7=
EXTT8=
EXTT9=
EXTT10=
EXTT11=
EXTT12=
EXTT13=
PLAYORDER=
